<?xml version="1.0" standalone="no"?>
<!DOCTYPE svg PUBLIC "-//W3C//DTD SVG 20010904//EN"
 "http://www.w3.org/TR/2001/REC-SVG-20010904/DTD/svg10.dtd">
<svg version="1.0" xmlns="http://www.w3.org/2000/svg"
 width="200.000000pt" height="200.000000pt" viewBox="0 0 200.000000 200.000000"
 preserveAspectRatio="xMidYMid meet">

<g transform="translate(0.000000,200.000000) scale(0.100000,-0.100000)"
fill="#000000" stroke="none">
<path d="M0 1000 l0 -1000 1000 0 1000 0 0 1000 0 1000 -1000 0 -1000 0 0
-1000z m1355 640 c182 -105 340 -202 353 -216 l22 -25 0 -398 c0 -384 -1 -399
-20 -424 -11 -14 -87 -64 -168 -110 -81 -47 -230 -133 -331 -191 -106 -61
-195 -106 -210 -106 -33 0 -676 368 -708 405 l-23 26 0 399 0 399 23 25 c19
22 615 373 672 396 11 5 29 9 40 9 11 1 169 -85 350 -189z"/>
<path d="M628 1113 c-87 -87 -128 -135 -128 -150 0 -22 2 -23 173 -25 l172 -3
3 -82 3 -83 54 0 55 0 0 145 0 145 -107 0 -106 0 23 25 c20 22 32 25 109 27
l86 3 0 60 0 60 -105 3 -105 3 -127 -128z"/>
<path d="M1040 1180 l0 -60 79 0 c71 0 83 -3 110 -26 17 -14 31 -30 31 -35 0
-4 -48 -10 -106 -11 l-107 -3 48 -52 47 -53 179 0 179 0 0 23 c0 15 -39 61
-128 150 l-127 127 -103 0 -102 0 0 -60z"/>
</g>
</svg>
